<svg viewBox="0 0 189.36 73.9" xmlns="http://www.w3.org/2000/svg" xmlns:xlink="http://www.w3.org/1999/xlink"><linearGradient id="a" gradientTransform="matrix(1 0 0 -1 0 779.58)" gradientUnits="userSpaceOnUse" x1="181.55" x2="162.84" y1="762.83" y2="706.7"><stop offset="0" stop-color="#f89725"/><stop offset=".63" stop-color="#ff007b"/><stop offset="1" stop-color="#2a7ecb"/></linearGradient><g fill="#05004d"><path d="m55.9 25.5c.3.8 1.1 1.1 1.8.9.4-.1.8-.2 1.3-.3 1-.2 2.1-.2 3.1-.1 4.9.5 8.9 4.5 9.4 9.4.7 6.4-4.3 11.9-10.6 11.9-.7 0-1.3-.1-2-.2-.5-.1-.9-.2-1.4-.4-.7-.2-1.5.1-1.7.8l-3.4 9.6c-.3.8.1 1.6.9 1.8 1 .4 2.1.6 3.2.8 1.7.3 3.4.4 5.2.4 12.1-.4 22.2-10.2 22.8-22.3.7-13.6-10.1-24.9-23.6-24.9-1.5 0-3 .1-4.4.4-1.1.2-2.1.5-3.2.8-.8.3-1.2 1.1-.9 1.9z"/><path d="m51.8 42.8-4 11.1c-.3.9-1.4 1.2-2.2.6-5-4.3-8.2-10.7-8.2-17.9s3.2-13.6 8.2-17.9c.7-.6 1.8-.3 2.1.6l4 11.1c.1.4.1.8-.1 1.2-.8 1.5-1.3 3.2-1.3 5.1s.5 3.6 1.3 5.1c.2.2.3.6.2 1z"/><path d="m30.2 46.5c1 2.9 2.6 5.6 4.5 8.1.9 1.2.5 2.9-.9 3.5-3 1.2-6.3 1.9-9.8 1.8-13.4-.2-24.2-10.9-24-23.8s11.3-23.3 24.7-23.1c3.6.1 7 .9 10.1 2.3 1.4.6 1.7 2.4.7 3.5-2 2.3-3.7 4.9-4.8 7.8-.5 1.2-1.8 1.7-2.9 1.2-1-.4-2.1-.6-3.3-.6-5.3-.1-9.6 4-9.7 9.1s4.1 9.3 9.4 9.4c1.1 0 2.2-.1 3.2-.5 1.2-.4 2.4.2 2.8 1.3z"/></g><path d="m186.9 13.3c1.7 0 2.9 1.7 2.3 3.2l-13.7 39.6-5.6 16.2c-.3 1-1.3 1.6-2.3 1.6h-9.3c-1.7 0-2.9-1.7-2.3-3.2l5.1-14.6 6.7-19.3 7.5-21.6c.4-1.2 1.5-2 2.8-2h8.8v.1z" fill="url(#a)"/><path d="m156.6 47.1-10.6-30.6c-.5-1.6.6-3.2 2.3-3.2h9c1.3 0 2.4.8 2.8 2l4.3 12.4c.3.8.3 1.8 0 2.6l-6 16.9c-.3.7-1.5.7-1.8-.1z" fill="#05004d"/><path d="m136.6 0h-8.6c-1.2 0-2.2 1-2.2 2.2v13.4c-3.5-1.8-7.5-2.7-11.8-2.5-12.2.6-22 10.7-22.3 22.8-.4 14.9 13 26.8 28.4 23.7 11.3-2.3 19.1-12.7 18.6-24.2v-33.2c.1-1.2-.9-2.2-2.1-2.2zm-21.3 47.2c-5.9 0-10.6-4.7-10.6-10.6s4.7-10.6 10.6-10.6 10.6 4.8 10.6 10.6-4.7 10.6-10.6 10.6z" fill="#05004d"/></svg>